<svg width="22" height="15" viewBox="0 0 22 15" fill="none" xmlns="http://www.w3.org/2000/svg">
<path d="M0.375 4.9858V3.27273H7.75142V4.9858H5.10511V12H3.02557V4.9858H0.375Z" fill="#1A4C90"/>
<path d="M7.66051 3.27273H10.2727L12.4886 8.67614H12.5909L14.8068 3.27273H17.419V12H15.3651V6.6392H15.2926L13.196 11.9446H11.8835L9.78693 6.60938H9.71449V12H7.66051V3.27273Z" fill="#9FA0A2"/>
<path d="M19.8324 12.1236C19.5256 12.1236 19.2628 12.0156 19.044 11.7997C18.8281 11.5838 18.7216 11.3224 18.7244 11.0156C18.7216 10.7145 18.8281 10.4574 19.044 10.2443C19.2628 10.0284 19.5256 9.92045 19.8324 9.92045C20.1222 9.92045 20.3778 10.0284 20.5994 10.2443C20.8239 10.4574 20.9375 10.7145 20.9403 11.0156C20.9375 11.2202 20.8835 11.4062 20.7784 11.5739C20.6761 11.7415 20.5412 11.875 20.3736 11.9744C20.2088 12.0739 20.0284 12.1236 19.8324 12.1236Z" fill="black"/>
</svg>
